<?xml version="1.0" encoding="utf-8"?>
<!-- Generator: Adobe Illustrator 19.2.1, SVG Export Plug-In . SVG Version: 6.00 Build 0)  -->
<svg version="1.1" id="Layer_1" xmlns="http://www.w3.org/2000/svg" xmlns:xlink="http://www.w3.org/1999/xlink" x="0px" y="0px"
	 width="566px" height="178px" viewBox="0 0 566 178" style="enable-background:new 0 0 566 178;" xml:space="preserve">
<style type="text/css">
	.st0{fill:#865DA3;}
</style>
<g>
	<g>
		<path class="st0" d="M89.4,12c43,0,77.8,34.7,77.8,77.6c0,42.8-34.9,77.4-78,77.4c-42.9,0-77.7-34.8-77.7-77.7
			C11.6,46.7,46.6,12,89.4,12z M139.4,75.9c0.1,0.4,0.2,0.8,0.3,1.1c1.9,7.6,2,15.2,0.5,22.8c-5.8,28.4-34.1,46.5-62.3,40
			c-32.4-7.5-49.4-42.5-35.2-72.5c9.9-21.1,33.6-33,56.5-28.5c4,0.8,7.9,2,11.7,3.7c2.9,1.3,6-0.2,6.7-3.2c0.6-2.3-0.6-4.5-3-5.6
			c-15.7-6.8-31.6-7.2-47.6-1c-28.2,10.9-44.1,41.2-37.4,70.4c7.7,33,40.2,53.4,73.4,46.1c34.2-7.6,55.2-42.5,45.6-76.2
			c-0.9-3.2-2.1-6.2-3.2-9.4c-0.6,0.2-0.9,0.3-1.3,0.4c-15.6,5.8-31.3,11.7-46.9,17.5c-3.2,1.2-6.3,2.3-9.5,3.6
			c-1.9,0.7-2.9,2.2-3,4.3c-0.1,2.1,0.9,3.5,2.7,4.5c1.4,0.7,2.8,0.5,4.2,0c10.1-3.8,20.2-7.6,30.3-11.3
			C127.7,80.3,133.5,78.1,139.4,75.9z M58.6,89.6c0.4-2.6,0.6-5.2,1.3-7.8c3.7-14.5,17.8-24.2,32.6-22.6c7.6,0.8,14.1,4,19.4,9.5
			c0.2,0.3,0.5,0.5,0.8,0.7c2.7,2.3,6.9,0.9,7.7-2.6c0.4-1.8-0.1-3.3-1.4-4.6c-10-10.2-22-14.4-36.1-12.2
			c-21.6,3.5-36.2,23.7-33,45.3c2.8,18.9,18.7,33.3,37.7,34.1c13.2,0.5,24.2-4.3,32.8-14.3c5.7-6.6,8.7-14.4,9.3-23.1
			c0.1-1.4-0.1-2.6-0.9-3.7c-1.2-1.6-2.8-2.2-4.8-1.9c-2,0.4-3.4,1.8-3.7,3.8c-0.2,1.4-0.2,2.8-0.5,4.1
			c-2.8,16.5-17.8,27.5-34.3,25.3C70.2,117.7,58.8,104.8,58.6,89.6z"/>
	</g>
	<g>
		<defs>
			<path id="SVGID_1_" d="M265.1,108c-1.6,2.4-4.3,4.7-8.2,6.7c-3.9,2-9,3.1-15.2,3.1c-7.9,0-14.5-2.5-19.7-7.6
				c-5.2-5.1-7.8-11.6-7.8-19.7V76.8c0-8.1,2.4-14.6,7.2-19.7c4.8-5.1,11.1-7.6,18.7-7.6c7.6,0,13.6,1.9,17.9,5.6
				c4.3,3.7,6.6,8.6,6.7,14.5l-0.1,0.3h-8.6c-0.3-3.9-1.7-7-4.4-9.5c-2.7-2.5-6.5-3.7-11.5-3.7c-5.1,0-9.2,1.9-12.3,5.7
				s-4.7,8.6-4.7,14.4v13.8c0,5.9,1.7,10.7,5.2,14.6s7.9,5.7,13.2,5.7c3.8,0,6.9-0.5,9.3-1.5c2.4-1,4.1-2.1,5.2-3.4V90.7h-14.5v-7.1
				h23.5V108z M309.3,116.8c-0.3-1.5-0.5-2.8-0.7-3.9c-0.2-1.1-0.3-2.3-0.3-3.4c-1.7,2.4-3.9,4.4-6.5,6s-5.6,2.4-8.7,2.4
				c-5.1,0-9.1-1.3-11.7-3.9c-2.7-2.6-4-6.3-4-10.9c0-4.7,1.9-8.4,5.7-11.1s9-4,15.5-4h9.8V83c0-2.9-0.9-5.2-2.6-6.9
				s-4.3-2.5-7.5-2.5c-2.9,0-5.2,0.7-7,2.2c-1.8,1.5-2.7,3.2-2.7,5.3h-8.6l-0.1-0.3c-0.2-3.6,1.5-6.9,5.1-9.8
				c3.6-3,8.2-4.5,13.8-4.5c5.6,0,10.1,1.4,13.5,4.3c3.4,2.8,5.1,6.9,5.1,12.3v23.8c0,1.8,0.1,3.5,0.3,5.1c0.2,1.6,0.5,3.3,1,4.8
				H309.3z M294.4,110.2c3.3,0,6.2-0.8,8.8-2.5c2.6-1.7,4.3-3.6,5.1-5.7v-8h-10.1c-3.6,0-6.5,0.9-8.7,2.7c-2.2,1.8-3.3,4-3.3,6.4
				c0,2.2,0.7,3.9,2.1,5.2C289.7,109.5,291.7,110.2,294.4,110.2z M338.3,67.5l0.6,6.5c1.6-2.3,3.7-4.2,6.1-5.4
				c2.5-1.3,5.4-1.9,8.6-1.9c3.3,0,6.1,0.8,8.5,2.3c2.4,1.5,4.1,3.8,5.3,6.8c1.6-2.8,3.6-5,6.2-6.7c2.6-1.6,5.5-2.5,8.9-2.5
				c5,0,9,1.7,11.9,5.2c2.9,3.5,4.4,8.6,4.4,15.6v29.5h-9V87.2c0-4.9-0.8-8.3-2.5-10.3c-1.7-2-4.2-3-7.5-3c-3.1,0-5.6,1.1-7.5,3.2
				c-1.9,2.1-3,4.8-3.4,8.1v0.4v31.3h-9V87.2c0-4.6-0.9-8-2.6-10.1c-1.7-2.1-4.2-3.2-7.4-3.2c-2.7,0-5,0.6-6.7,1.7
				c-1.8,1.1-3.1,2.7-4.1,4.7v36.5h-9V67.5H338.3z M432.4,117.7c-6.9,0-12.3-2.3-16.4-6.9c-4.1-4.6-6.1-10.5-6.1-17.8v-2
				c0-7,2.1-12.9,6.3-17.5c4.2-4.7,9.1-7,14.8-7c6.7,0,11.7,2,15.1,6c3.4,4,5.1,9.4,5.1,16v5.6h-32l-0.1,0.2
				c0.1,4.7,1.3,8.6,3.6,11.7c2.3,3,5.5,4.6,9.7,4.6c3,0,5.7-0.4,8-1.3c2.3-0.9,4.3-2.1,6-3.6l3.5,5.8c-1.8,1.7-4.1,3.2-7,4.4
				C440,117.2,436.5,117.7,432.4,117.7z M431,73.6c-3,0-5.6,1.3-7.7,3.8c-2.1,2.5-3.4,5.7-3.9,9.5l0.1,0.2h22.8V86
				c0-3.5-0.9-6.5-2.8-8.8C437.5,74.8,434.7,73.6,431,73.6z M475.8,98.5l1.6,6.2h0.3l12.1-37.3h10L479,124.4c-1.2,3.3-3,6.2-5.4,8.7
				s-5.5,3.7-9.4,3.7c-0.7,0-1.7-0.1-2.8-0.3c-1.1-0.2-2-0.3-2.6-0.5l0.9-7.1c-0.2,0,0.4,0,1.6,0.1s2.1,0.1,2.4,0.1
				c1.9,0,3.5-0.9,4.7-2.6c1.2-1.7,2.2-3.6,3.1-5.7l2.1-5.2l-18.3-48.3h10L475.8,98.5z M512,116.8V74.1h-7.7v-6.7h7.7v-6.2
				c0-5.3,1.4-9.3,4.1-12.2c2.8-2.9,6.6-4.3,11.5-4.3c1,0,2.1,0.1,3.1,0.3c1,0.2,2.2,0.4,3.5,0.7l-1.1,6.8c-0.5-0.1-1.2-0.2-2-0.3
				s-1.6-0.1-2.4-0.1c-2.6,0-4.6,0.8-5.8,2.3c-1.3,1.6-1.9,3.8-1.9,6.8v6.2h10.3v6.7H521v42.7H512z M550.2,54.8h-9v-9.2h9V54.8z
				 M550.2,116.8h-9V67.5h9V116.8z"/>
		</defs>
		<use xlink:href="#SVGID_1_"  style="overflow:visible;"/>
		<clipPath id="SVGID_2_">
			<use xlink:href="#SVGID_1_"  style="overflow:visible;"/>
		</clipPath>
	</g>
</g>
</svg>
